<svg id="Layer_1" data-name="Layer 1" xmlns="http://www.w3.org/2000/svg" viewBox="0 0 1920 1080"><defs><style>.cls-1,.cls-3,.cls-5,.cls-6{fill:#3bc04a;}.cls-1{opacity:0.58;}.cls-2{fill:#985f5b;}.cls-3{opacity:0.65;}.cls-4{fill:#0d260f;}.cls-6{opacity:0.67;}</style></defs><title>homeBGFirst</title><circle class="cls-1" cx="633.57" cy="737.42" r="101.62"/><circle class="cls-1" cx="758.43" cy="821.63" r="40.65"/><circle class="cls-1" cx="651.51" cy="725.46" r="101.62"/><circle class="cls-1" cx="776.38" cy="809.67" r="40.65"/><path class="cls-2" d="M688.52,722.11a3,3,0,0,0-4.22-4.22L634.14,768,584,717.89a3,3,0,1,0-4.54,3.89,3.34,3.34,0,0,0,.32.33l51.37,51.3v35.18L584,761.45a3,3,0,1,0-4.54,3.89c.1.11.21.22.32.32l51.37,51.4v83a3,3,0,0,0,6,0v-83l51.39-51.4a3,3,0,0,0-4.22-4.21l-47.17,47.14V773.41Z"/><path class="cls-2" d="M782.48,827a3,3,0,0,0-4.21,0l-18.49,18.48L741.32,827a3,3,0,0,0-4.25,4.25L756.79,851V900a3,3,0,0,0,6,0V851l19.71-19.71a3,3,0,0,0,0-4.23Z"/><circle class="cls-3" cx="1798.67" cy="398.12" r="36.12"/><circle class="cls-3" cx="1808.92" cy="392.41" r="36.12"/><circle class="cls-3" cx="1547.7" cy="327.12" r="48.14"/><circle class="cls-3" cx="1716.19" cy="351.22" r="48.14"/><circle class="cls-3" cx="1643.99" cy="234.88" r="72.2"/><circle class="cls-3" cx="1838.51" cy="473.54" r="26.08"/><circle class="cls-3" cx="1738.25" cy="461.51" r="26.08"/><circle class="cls-3" cx="1564.23" cy="322.99" r="48.14"/><circle class="cls-3" cx="1732.72" cy="347.08" r="48.14"/><circle class="cls-3" cx="1660.52" cy="230.75" r="72.2"/><circle class="cls-3" cx="1855.04" cy="469.41" r="26.08"/><circle class="cls-3" cx="1754.78" cy="457.38" r="26.08"/><path class="cls-2" d="M1709.11,358.51l-65.62,48.63V259a4.14,4.14,0,1,0-8.27,0V383l-81.86-53.47a4.08,4.08,0,0,0-5.71,1.32,4.32,4.32,0,0,0,1.28,5.85l86.29,56.34v141.7a4.14,4.14,0,1,0,8.27,0V417.61l70.25-52.23a4.29,4.29,0,0,0,2-5.62,4.09,4.09,0,0,0-5.48-2.09A4.24,4.24,0,0,0,1709.11,358.51Z"/><path class="cls-2" d="M1836.2,477.71a4.14,4.14,0,0,0-5.34-2l-30.34,17.07V427.42s-5.64-4.13-7.92-4.13-4.47,4.13-4.47,4.13v54.67l-45.87-22.31a4.28,4.28,0,0,0-3.8,7.68l53.8,24v36.41s-2.36,4.13-.08,4.13,4.21-4.13,4.21-4.13v-25.7l37.74-18.93a4.12,4.12,0,0,0,2.1-5.45Z"/><path class="cls-4" d="M1534.48,477.21a51.15,51.15,0,0,0-30.08,41.08,11,11,0,0,0,10.91,11.25h78.78A11,11,0,0,0,1605,518.29a51.16,51.16,0,0,0-30.07-41.08c-3.66,7.31-11.32,12.94-20.23,12.94S1538.13,484.52,1534.48,477.21Z"/><path class="cls-4" d="M1582.84,446.47a28.14,28.14,0,1,1-28.14-28.14A28.14,28.14,0,0,1,1582.84,446.47Z"/><path class="cls-4" d="M1554.7,467.64a50.27,50.27,0,0,0-20.22,4.22,50.79,50.79,0,0,0-30.08,40.8,11,11,0,0,0,10.91,11.26h78.78A11,11,0,0,0,1605,512.66a50.61,50.61,0,0,0-50.3-45Z"/><path class="cls-5" d="M1665.22,502.34c-.11-.06-.12-.13-.23-.19a19.19,19.19,0,0,1-7.23-6.57l-80.46-133.5c-.16-.3-3.18-5.74-5.63-9.47a7.59,7.59,0,0,0-6.07-3.43H1375.48s-4.73.21-9.86,9C1361,366,1296.74,476.32,1282.41,501,1272,502.88,1264,513,1264,525.22V638.16c0,13.66,9.75,24.51,21.79,24.51h19.1v55.65c0,6.92,4.36,12.5,9.8,12.5h34.94c5.32,0,9.78-5.58,9.78-12.5V662.67h218.08v55.75c0,6.86,4.41,12.4,9.81,12.4h34.93c5.39,0,9.78-5.54,9.78-12.4V662.67h25.91c12.06,0,21.79-10.85,21.79-24.51V525.22C1679.72,514.58,1673.65,505.7,1665.22,502.34ZM1379.59,374.73s2.6-5.1,14.74-5.1h74.5s.68,0,1.61,0h77.44c3.23.4,8.09,2,11.66,8l72.55,121.48h-324.5Zm-34.36,241.86a37.38,37.38,0,1,1,37.37-37.37A37.38,37.38,0,0,1,1345.23,616.59Zm250.69,0a37.38,37.38,0,1,1,37.37-37.37A37.37,37.37,0,0,1,1595.92,616.59Z"/><ellipse class="cls-6" cx="965.61" cy="284.55" rx="159.64" ry="95.43"/><ellipse class="cls-6" cx="1001.36" cy="284.55" rx="159.64" ry="95.43"/><ellipse class="cls-6" cx="1057.57" cy="426.81" rx="67.68" ry="39.9"/><ellipse class="cls-6" cx="1082.59" cy="419.66" rx="67.68" ry="39.9"/><path class="cls-2" d="M1096.24,426.46a3.61,3.61,0,0,0-3.65,3.58v6a8.77,8.77,0,0,1-4.16.86H1064v-20.7a3.58,3.58,0,1,0-7.16,0v20.7h-31.66s-2.81-1.72-4.09-2.34v-6a3.54,3.54,0,0,0-3.56-3.57,3.6,3.6,0,0,0-3.59,3.57v6.69c0,4.22,11.24,5.19,11.24,5.19h31.66V504.9c-1.27,2,.33,3.57,2.31,3.57s3.57-1.6,4.85-3.57V444h24.29c6.64,0,11.46-3.08,11.46-7.15V430A3.62,3.62,0,0,0,1096.24,426.46Z"/><path class="cls-2" d="M1039.49,329.61c11.55,0,20.92-7.15,20.92-16V291.32a3.58,3.58,0,1,0-7.15,0v22c0,5-6.23,9.17-13.63,9.17H971V293.85h48.21s15.91-6.08,16.14-12.91V265.46a3.94,3.94,0,0,0-3.81-3.58,3.25,3.25,0,0,0-3.34,3.58v15.66c-.23,2.46-9,2-9,2H967.45V251.58c1.73-2,.13-3.57-1.84-3.57s-3.58,1.6-5.31,3.57V286.7H915.43c-5.15,0-8.76-2.75-8.76-5.22V266a3.58,3.58,0,0,0-7.15,0v15c0,7.08,7,12.83,15.5,12.83H960.3v28.61H891.87c-7.47,0-13.8-4.15-13.8-9.06V290.33a3.58,3.58,0,1,0-7.15,0v22.89c0,9,9.4,16.39,21,16.39H960.3V506.48a3.58,3.58,0,1,0,7.15,0V329.61Z"/></svg>