<?xml version="1.0" encoding="utf-8"?>
<!-- Generator: Adobe Illustrator 23.0.1, SVG Export Plug-In . SVG Version: 6.00 Build 0)  -->
<svg version="1.1" id="Layer_1" xmlns="http://www.w3.org/2000/svg" xmlns:xlink="http://www.w3.org/1999/xlink" x="0px" y="0px"
	 viewBox="0 0 1920 2286.6" style="enable-background:new 0 0 1920 2286.6;" xml:space="preserve">
<style type="text/css">
	.st0{opacity:0.58;fill:#3BC04A;enable-background:new    ;}
	.st1{fill:#985F5B;}
	.st2{opacity:0.65;fill:#3BC04A;enable-background:new    ;}
	.st3{fill:#3BC04A;}
	.st4{opacity:0.75;}
	.st5{fill:#5B5B5B;}
	.st6{fill:#0D260F;}
	.st7{fill:none;stroke:#3BC04A;stroke-width:6;stroke-miterlimit:10;}
	.st8{fill:none;stroke:#3BC04A;stroke-width:6;stroke-linecap:round;stroke-miterlimit:10;}
</style>
<title>loginBackground</title>
<circle class="st0" cx="1811.4" cy="745.1" r="56"/>
<circle class="st0" cx="1880.2" cy="791.5" r="22.4"/>
<circle class="st0" cx="1821.3" cy="738.5" r="56"/>
<circle class="st0" cx="1890.1" cy="784.9" r="22.4"/>
<path class="st1" d="M1841.7,736.7c0.6-0.7,0.5-1.7-0.2-2.3c-0.6-0.5-1.5-0.5-2.1,0l-27.6,27.7l-27.6-27.6c-0.6-0.7-1.6-0.8-2.3-0.3
	s-0.8,1.6-0.3,2.3l0.1,0.1l0.2,0.2l28.3,28.3v19.3l-26-26c-0.6-0.7-1.6-0.8-2.3-0.3s-0.8,1.6-0.3,2.3l0.1,0.1l0.2,0.2l28.3,28.3
	v45.7c-0.1,0.9,0.6,1.7,1.5,1.8s1.7-0.6,1.8-1.5c0-0.1,0-0.2,0-0.3V789l28.3-28.3c0.6-0.7,0.5-1.7-0.2-2.3c-0.6-0.5-1.5-0.5-2.1,0
	l-26,26v-19.5L1841.7,736.7z"/>
<path class="st1" d="M1893.5,794.4c-0.6-0.6-1.7-0.6-2.3,0l0,0l-10.2,10.2l-10.2-10.2c-0.6-0.6-1.7-0.6-2.3,0
	c-0.6,0.6-0.6,1.7,0,2.3l0,0l10.9,10.9v27c-0.1,0.9,0.6,1.7,1.5,1.8s1.7-0.6,1.8-1.5c0-0.1,0-0.2,0-0.3v-27l10.9-10.9
	C1894.1,796.1,1894.1,795.1,1893.5,794.4L1893.5,794.4L1893.5,794.4z"/>
<circle class="st2" cx="986.8" cy="740.6" r="18.6"/>
<circle class="st2" cx="1051.8" cy="749.9" r="18.6"/>
<ellipse class="st2" cx="1023.9" cy="705.1" rx="27.9" ry="27.9"/>
<circle class="st2" cx="1081.2" cy="774.7" r="13.9"/>
<circle class="st2" cx="1099.1" cy="797.2" r="10.1"/>
<circle class="st2" cx="1060.3" cy="792.5" r="10.1"/>
<circle class="st2" cx="993.2" cy="739" r="18.6"/>
<circle class="st2" cx="1058.2" cy="748.3" r="18.6"/>
<circle class="st2" cx="1030.3" cy="703.4" r="27.9"/>
<circle class="st2" cx="1087.6" cy="773.1" r="13.9"/>
<circle class="st2" cx="1105.4" cy="795.6" r="10.1"/>
<circle class="st2" cx="1066.7" cy="790.9" r="10.1"/>
<path class="st1" d="M1049.1,754.4l-25.3,19.6v-59.6c0.1-0.9-0.6-1.7-1.5-1.7c-0.9-0.1-1.7,0.6-1.7,1.5c0,0.1,0,0.2,0,0.3v49.9
	L989,742.8c-0.7-0.5-1.7-0.3-2.1,0.4c0,0,0,0.1-0.1,0.1c-0.5,0.8-0.3,1.8,0.5,2.4l33.3,22.7v57c-0.1,0.9,0.6,1.7,1.5,1.7
	c0.9,0.1,1.7-0.6,1.7-1.5c0-0.1,0-0.2,0-0.3v-47.1l27.1-21c0.8-0.4,1.2-1.4,0.8-2.3c-0.3-0.8-1.2-1.2-2-0.9h-0.1
	C1049.4,754.2,1049.2,754.3,1049.1,754.4z"/>
<path class="st1" d="M1098.2,798.8c-0.4-0.8-1.3-1.1-2.1-0.8l-11.7,6.6v-25.2c0,0-2.2-1.6-3.1-1.6s-1.7,1.6-1.7,1.6v21.1l-17.7-8.6
	c-0.8-0.4-1.8-0.1-2.2,0.8s-0.1,1.8,0.8,2.2l20.8,9.3v14.1c0,0-0.9,1.6,0,1.6s1.6-1.6,1.6-1.6v-9.9l14.6-7.3
	C1098.2,800.6,1098.6,799.7,1098.2,798.8L1098.2,798.8z"/>
<path class="st3" d="M1920.5,837.4v1449.2H0V990.8h334.5V839.3c15.5-0.9,31-1.7,46.6-2.5c107-5.6,216.1-10,327.2-13.3
	c432.1-12.7,833.4-5.6,1198.2,13.3L1920.5,837.4z"/>
<path class="st3" d="M1920.5,834v0.6l-8.5-0.6H1920.5z"/>
<g>
	<g class="st4">
		<path class="st5" d="M1429.9,384.7c-3.3,1.5-5.6,4.6-6,8.2c0,1.2,0.9,2.2,2.1,2.2c0,0,0,0,0.1,0h15.7c1.2,0,2.2-1,2.2-2.2l0,0
			c-0.4-3.6-2.7-6.7-6-8.2c-1,2.2-3.7,3.2-5.9,2.2C1431.1,386.4,1430.4,385.7,1429.9,384.7L1429.9,384.7z"/>
		<path class="st5" d="M1439.6,378.5c0,3.1-2.5,5.6-5.6,5.6s-5.6-2.5-5.6-5.6s2.5-5.6,5.6-5.6l0,0
			C1437,372.9,1439.6,375.4,1439.6,378.5z"/>
		<path class="st5" d="M1433.9,382.8c-1.4,0-2.7,0.3-4,0.9c-3.3,1.4-5.6,4.6-6,8.1c0,1.2,0.9,2.2,2.1,2.2l0,0h15.7
			c1.2,0,2.2-1,2.2-2.2c0,0,0,0,0-0.1c-0.4-3.6-2.7-6.7-6-8.1C1436.7,383.1,1435.3,382.8,1433.9,382.8z"/>
		<path class="st5" d="M1415.2,384.9c-4.3,1.9-7.2,5.9-7.7,10.5c0,1.6,1.2,2.8,2.7,2.9l0,0h20.2c1.6,0,2.8-1.3,2.8-2.8
			c0,0,0,0,0-0.1c-0.5-4.6-3.4-8.6-7.7-10.5c-1.3,2.9-4.7,4.1-7.5,2.8C1416.8,387.1,1415.8,386.2,1415.2,384.9L1415.2,384.9z"/>
		<path class="st5" d="M1427.6,377c0,4-3.2,7.2-7.2,7.2s-7.2-3.2-7.2-7.2s3.2-7.2,7.2-7.2l0,0C1424.4,369.8,1427.6,373,1427.6,377
			L1427.6,377z"/>
		<path class="st5" d="M1420.4,382.4c-6.6,0-12.1,5-12.9,11.5c0,1.5,1.2,2.8,2.7,2.9c0,0,0,0,0.1,0h20.2c1.6,0,2.8-1.3,2.8-2.8
			c0,0,0,0,0-0.1C1432.5,387.4,1427,382.4,1420.4,382.4L1420.4,382.4z"/>
		<path class="st5" d="M1443.7,384.7c-3.3,1.5-5.6,4.6-6,8.2c0,1.2,0.9,2.2,2.1,2.2l0,0h15.7c1.2,0,2.2-1,2.2-2.2c0,0,0,0,0-0.1
			c-0.4-3.6-2.7-6.7-6-8.2c-1,2.2-3.7,3.2-5.9,2.2C1444.9,386.4,1444.2,385.6,1443.7,384.7L1443.7,384.7z"/>
		<path class="st5" d="M1453.4,378.5c0,3.1-2.5,5.6-5.6,5.6s-5.6-2.5-5.6-5.6s2.5-5.6,5.6-5.6l0,0
			C1450.8,372.9,1453.4,375.4,1453.4,378.5L1453.4,378.5z"/>
		<path class="st5" d="M1447.7,382.8c-1.4,0-2.7,0.3-4,0.9c-3.3,1.5-5.6,4.6-6,8.1c0,1.2,0.9,2.2,2.1,2.2c0,0,0,0,0.1,0h15.7
			c1.2,0,2.2-1,2.2-2.2l0,0c-0.4-3.6-2.7-6.7-6-8.1C1450.5,383,1449.1,382.8,1447.7,382.8z"/>
		<path class="st5" d="M1455.9,384.9c-4.2,1.9-7.2,5.9-7.7,10.5c0,1.6,1.2,2.8,2.7,2.9c0,0,0,0,0.1,0h20.1c1.6,0,2.8-1.3,2.8-2.8
			c0,0,0,0,0-0.1c-0.5-4.6-3.4-8.6-7.7-10.5c-1.3,2.9-4.7,4.1-7.5,2.8C1457.4,387.1,1456.4,386.2,1455.9,384.9L1455.9,384.9z"/>
		<path class="st5" d="M1468.2,377c0,4-3.2,7.2-7.2,7.2s-7.2-3.2-7.2-7.2s3.2-7.2,7.2-7.2l0,0C1465,369.8,1468.2,373,1468.2,377
			L1468.2,377z"/>
		<path class="st5" d="M1461,382.4c-6.6,0-12.1,5-12.8,11.5c0,1.6,1.2,2.8,2.7,2.9c0,0,0,0,0.1,0h20.1c1.6,0,2.8-1.3,2.8-2.8
			c0,0,0,0,0-0.1C1473.2,387.4,1467.6,382.4,1461,382.4z"/>
		<path class="st5" d="M1489.3,391.3L1489.3,391.3c-0.8-0.4-1.4-1-1.9-1.7l-20.6-34.1c0-0.1-0.8-1.5-1.4-2.4
			c-0.4-0.5-0.9-0.8-1.6-0.9h-48.6c0,0-1.2,0.1-2.5,2.3c-1.2,2-17.6,30.2-21.3,36.5c-2.9,0.7-4.8,3.3-4.7,6.2V426
			c0,3.5,2.5,6.3,5.6,6.3h4.9v14.2c0,1.8,1.1,3.2,2.5,3.2h8.9c1.4,0,2.5-1.4,2.5-3.2v-14.2h55.8v14.3c0,1.8,1.1,3.2,2.5,3.2h8.9
			c1.4,0,2.5-1.4,2.5-3.2v-14.3h6.6c3.1,0,5.6-2.8,5.6-6.3v-28.9C1493.1,394.6,1491.6,392.3,1489.3,391.3z M1416.3,358.7
			c0,0,0.7-1.3,3.8-1.3h39.3c1.3,0.2,2.4,0.9,3,2l18.5,31.1h-83L1416.3,358.7z M1407.5,420.5c-5.3,0-9.6-4.2-9.6-9.5
			s4.2-9.6,9.5-9.6s9.6,4.2,9.6,9.5l0,0C1417,416.2,1412.8,420.5,1407.5,420.5L1407.5,420.5z M1471.6,420.5c-5.3,0-9.6-4.3-9.6-9.6
			s4.3-9.6,9.6-9.6s9.6,4.3,9.6,9.6l0,0C1481.1,416.2,1476.9,420.5,1471.6,420.5L1471.6,420.5L1471.6,420.5z"/>
	</g>
	<path d="M1429.9,382.7c-3.3,1.5-5.6,4.6-6,8.2c0,1.2,0.9,2.2,2.1,2.2c0,0,0,0,0.1,0h15.7c1.2,0,2.2-1,2.2-2.2l0,0
		c-0.4-3.6-2.7-6.7-6-8.2c-1,2.2-3.7,3.2-5.9,2.2C1431.1,384.4,1430.4,383.7,1429.9,382.7L1429.9,382.7z"/>
	<path d="M1439.6,376.5c0,3.1-2.5,5.6-5.6,5.6s-5.6-2.5-5.6-5.6s2.5-5.6,5.6-5.6l0,0C1437,370.9,1439.6,373.4,1439.6,376.5z"/>
	<path d="M1433.9,380.8c-1.4,0-2.7,0.3-4,0.9c-3.3,1.4-5.6,4.6-6,8.1c0,1.2,0.9,2.2,2.1,2.2l0,0h15.7c1.2,0,2.2-1,2.2-2.2
		c0,0,0,0,0-0.1c-0.4-3.6-2.7-6.7-6-8.1C1436.7,381.1,1435.3,380.8,1433.9,380.8z"/>
	<path class="st6" d="M1415.2,382.9c-4.3,1.9-7.2,5.9-7.7,10.5c0,1.6,1.2,2.8,2.7,2.9l0,0h20.2c1.6,0,2.8-1.3,2.8-2.8c0,0,0,0,0-0.1
		c-0.5-4.6-3.4-8.6-7.7-10.5c-1.3,2.9-4.7,4.1-7.5,2.8C1416.8,385.1,1415.8,384.2,1415.2,382.9L1415.2,382.9z"/>
	<path class="st6" d="M1427.6,375c0,4-3.2,7.2-7.2,7.2s-7.2-3.2-7.2-7.2s3.2-7.2,7.2-7.2l0,0C1424.4,367.8,1427.6,371,1427.6,375
		L1427.6,375z"/>
	<path class="st6" d="M1420.4,380.4c-6.6,0-12.1,5-12.9,11.5c0,1.5,1.2,2.8,2.7,2.9c0,0,0,0,0.1,0h20.2c1.6,0,2.8-1.3,2.8-2.8
		c0,0,0,0,0-0.1C1432.5,385.4,1427,380.4,1420.4,380.4L1420.4,380.4z"/>
	<path d="M1443.7,382.7c-3.3,1.5-5.6,4.6-6,8.2c0,1.2,0.9,2.2,2.1,2.2l0,0h15.7c1.2,0,2.2-1,2.2-2.2c0,0,0,0,0-0.1
		c-0.4-3.6-2.7-6.7-6-8.2c-1,2.2-3.7,3.2-5.9,2.2C1444.9,384.4,1444.2,383.6,1443.7,382.7L1443.7,382.7z"/>
	<path d="M1453.4,376.5c0,3.1-2.5,5.6-5.6,5.6s-5.6-2.5-5.6-5.6s2.5-5.6,5.6-5.6l0,0C1450.8,370.9,1453.4,373.4,1453.4,376.5
		L1453.4,376.5z"/>
	<path d="M1447.7,380.8c-1.4,0-2.7,0.3-4,0.9c-3.3,1.5-5.6,4.6-6,8.1c0,1.2,0.9,2.2,2.1,2.2c0,0,0,0,0.1,0h15.7c1.2,0,2.2-1,2.2-2.2
		l0,0c-0.4-3.6-2.7-6.7-6-8.1C1450.5,381,1449.1,380.8,1447.7,380.8z"/>
	<path class="st6" d="M1455.9,382.9c-4.2,1.9-7.2,5.9-7.7,10.5c0,1.6,1.2,2.8,2.7,2.9c0,0,0,0,0.1,0h20.1c1.6,0,2.8-1.3,2.8-2.8
		c0,0,0,0,0-0.1c-0.5-4.6-3.4-8.6-7.7-10.5c-1.3,2.9-4.7,4.1-7.5,2.8C1457.4,385.1,1456.4,384.2,1455.9,382.9L1455.9,382.9z"/>
	<path class="st6" d="M1468.2,375c0,4-3.2,7.2-7.2,7.2s-7.2-3.2-7.2-7.2s3.2-7.2,7.2-7.2l0,0C1465,367.8,1468.2,371,1468.2,375
		L1468.2,375z"/>
	<path class="st6" d="M1461,380.4c-6.6,0-12.1,5-12.8,11.5c0,1.6,1.2,2.8,2.7,2.9c0,0,0,0,0.1,0h20.1c1.6,0,2.8-1.3,2.8-2.8
		c0,0,0,0,0-0.1C1473.2,385.4,1467.6,380.4,1461,380.4z"/>
	<path class="st3" d="M1489.3,389.3L1489.3,389.3c-0.8-0.4-1.4-1-1.9-1.7l-20.6-34.1c0-0.1-0.8-1.5-1.4-2.4
		c-0.4-0.5-0.9-0.8-1.6-0.9h-48.6c0,0-1.2,0.1-2.5,2.3c-1.2,2-17.6,30.2-21.3,36.5c-2.9,0.7-4.8,3.3-4.7,6.2V424
		c0,3.5,2.5,6.3,5.6,6.3h4.9v14.2c0,1.8,1.1,3.2,2.5,3.2h8.9c1.4,0,2.5-1.4,2.5-3.2v-14.2h55.8v14.3c0,1.8,1.1,3.2,2.5,3.2h8.9
		c1.4,0,2.5-1.4,2.5-3.2v-14.3h6.6c3.1,0,5.6-2.8,5.6-6.3v-28.9C1493.1,392.6,1491.6,390.3,1489.3,389.3z M1416.3,356.7
		c0,0,0.7-1.3,3.8-1.3h39.3c1.3,0.2,2.4,0.9,3,2l18.5,31.1h-83L1416.3,356.7z M1407.5,418.5c-5.3,0-9.6-4.2-9.6-9.5s4.2-9.6,9.5-9.6
		s9.6,4.2,9.6,9.5l0,0C1417,414.2,1412.8,418.5,1407.5,418.5L1407.5,418.5z M1471.6,418.5c-5.3,0-9.6-4.3-9.6-9.6s4.3-9.6,9.6-9.6
		s9.6,4.3,9.6,9.6l0,0C1481.1,414.2,1476.9,418.5,1471.6,418.5L1471.6,418.5L1471.6,418.5z"/>
	
		<rect x="1368.6" y="333.5" transform="matrix(0.7071 -0.7071 0.7071 0.7071 135.4395 1136.811)" class="st7" width="142.8" height="142.8"/>
	<path d="M1410.7,215.4h2.3V231h7.5v1.9h-9.8V215.4z"/>
	<path d="M1433.9,226.5c0,4.6-3.2,6.7-6.3,6.7c-3.4,0-6-2.5-6-6.5c0-4.2,2.8-6.7,6.2-6.7S1433.9,222.7,1433.9,226.5z M1423.9,226.7
		c0,2.8,1.6,4.8,3.8,4.8s3.8-2,3.8-4.9c0-2.1-1.1-4.8-3.8-4.8S1423.9,224.3,1423.9,226.7L1423.9,226.7z"/>
	<path d="M1447.6,220.4c0,0.9-0.1,1.9-0.1,3.5v7.3c0,2.9-0.6,4.7-1.8,5.8c-1.3,1.1-2.9,1.6-4.6,1.5c-1.5,0-2.9-0.3-4.2-1l0.6-1.7
		c1.1,0.7,2.4,1,3.7,1c2.3,0,4.1-1.2,4.1-4.4V231l0,0c-0.9,1.4-2.4,2.2-4,2.1c-3.1,0-5.3-2.6-5.3-6.1c0-4.3,2.8-6.7,5.7-6.7
		c1.6-0.1,3.2,0.8,3.9,2.2l0,0l0.1-1.9L1447.6,220.4z M1445.2,225.4c0-0.3,0-0.7-0.1-1c-0.4-1.4-1.7-2.4-3.2-2.4
		c-2.2,0-3.7,1.8-3.7,4.8c0,2.5,1.3,4.5,3.7,4.5c1.5,0,2.7-1,3.2-2.3c0.1-0.4,0.2-0.8,0.2-1.2L1445.2,225.4z"/>
	<path d="M1453.7,216.8c0,0.7-0.5,1.4-1.3,1.4c-0.1,0-0.1,0-0.2,0c-0.8,0-1.4-0.6-1.4-1.3c0,0,0,0,0-0.1c0-0.8,0.6-1.4,1.4-1.4
		c0,0,0,0,0.1,0c0.8,0,1.4,0.6,1.4,1.3C1453.7,216.7,1453.7,216.8,1453.7,216.8z M1451.1,232.9v-12.6h2.3v12.6H1451.1z"/>
	<path d="M1457.2,223.8c0-1.3,0-2.4-0.1-3.4h2l0.1,2.1l0,0c0.8-1.5,2.4-2.4,4.2-2.4c1.8,0,4.4,1,4.4,5.4v7.5h-2.3v-7.3
		c0-2-0.8-3.7-2.9-3.7c-1.4,0-2.7,1-3.1,2.3c-0.1,0.3-0.2,0.7-0.2,1.1v7.6h-2.3L1457.2,223.8z"/>
	<path d="M1092.3,412.4c-1.5,0.6-3,0.9-4.6,0.8c-4.9,0-8.7-3.1-8.7-8.9c0-5.5,3.7-9.2,9.2-9.2c1.4-0.1,2.9,0.2,4.2,0.8l-0.5,1.9
		c-1.1-0.5-2.3-0.8-3.5-0.7c-4.1,0-6.8,2.6-6.8,7.2c0,4.3,2.5,7,6.7,7c1.3,0,2.5-0.2,3.7-0.7L1092.3,412.4z"/>
	<path d="M1095,404.3c0-1.5,0-2.8-0.1-3.9h2l0.1,2.5h0.1c0.4-1.6,1.8-2.7,3.5-2.8c0.2,0,0.4,0,0.7,0.1v2.2c-0.3-0.1-0.5-0.1-0.8-0.1
		c-1.6,0.1-2.9,1.3-3.1,2.9c-0.1,0.4-0.1,0.7-0.1,1.1v6.7h-2.3L1095,404.3L1095,404.3z"/>
	<path d="M1104.5,407.1c0,3.1,2,4.4,4.3,4.4c1.2,0,2.4-0.2,3.5-0.7l0.4,1.6c-1.3,0.6-2.8,0.8-4.2,0.8c-3.9,0-6.2-2.5-6.2-6.3
		s2.2-6.8,5.9-6.8c4.1,0,5.2,3.6,5.2,5.9c0,0.4,0,0.7-0.1,1.1H1104.5z M1111.3,405.4c0-1.5-0.6-3.7-3.2-3.7c-2.3,0-3.3,2.1-3.5,3.7
		H1111.3z"/>
	<path d="M1123.3,412.9l-0.2-1.6h-0.1c-0.9,1.2-2.3,1.9-3.8,1.9c-2,0.1-3.7-1.3-3.8-3.3c0-0.1,0-0.2,0-0.3c0-3,2.7-4.7,7.6-4.7v-0.3
		c0.2-1.4-0.8-2.7-2.2-2.9c-0.2,0-0.4,0-0.6,0c-1.2,0-2.3,0.3-3.3,0.9l-0.5-1.5c1.2-0.7,2.7-1.1,4.1-1.1c3.8,0,4.8,2.6,4.8,5.1v4.7
		c0,1,0.1,2,0.2,3L1123.3,412.9L1123.3,412.9z M1122.9,406.5c-2.5,0-5.3,0.4-5.3,2.8c-0.1,1.1,0.7,2.1,1.8,2.2c0.1,0,0.2,0,0.4,0
		c1.4,0,2.6-0.8,3-2.1c0.1-0.2,0.1-0.5,0.1-0.7V406.5z"/>
	<path d="M1131.5,396.7v3.6h3.3v1.7h-3.3v6.8c0,1.6,0.4,2.4,1.7,2.4c0.4,0,0.9,0,1.3-0.2l0.1,1.7c-0.6,0.2-1.3,0.3-2,0.3
		c-0.9,0-1.8-0.3-2.5-1c-0.7-0.9-1-2.1-0.9-3.3v-6.9h-2v-1.7h2v-3L1131.5,396.7z"/>
	<path d="M1138.4,407.1c0.1,3.1,2,4.4,4.3,4.4c1.2,0,2.4-0.2,3.5-0.7l0.4,1.6c-1.3,0.6-2.7,0.8-4.2,0.8c-3.9,0-6.2-2.5-6.2-6.3
		s2.2-6.8,5.9-6.8c4.1,0,5.2,3.6,5.2,5.9c0,0.4,0,0.7-0.1,1.1H1138.4z M1145.1,405.4c0-1.5-0.6-3.7-3.2-3.7c-2.3,0-3.3,2.1-3.5,3.7
		H1145.1z"/>
	<path d="M1162.7,412.9l-0.2-1.6h-0.1c-0.9,1.2-2.3,1.9-3.8,1.9c-2,0.1-3.7-1.3-3.8-3.3c0-0.1,0-0.2,0-0.3c0-3,2.7-4.7,7.6-4.7v-0.3
		c0.2-1.4-0.8-2.7-2.2-2.9c-0.2,0-0.4,0-0.6,0c-1.2,0-2.3,0.3-3.3,0.9l-0.5-1.5c1.2-0.7,2.7-1.1,4.1-1.1c3.8,0,4.8,2.6,4.8,5.1v4.7
		c0,1,0.1,2,0.2,3L1162.7,412.9L1162.7,412.9z M1162.3,406.5c-2.5,0-5.3,0.4-5.3,2.8c-0.1,1.1,0.7,2.1,1.8,2.2c0.1,0,0.2,0,0.4,0
		c1.3,0,2.6-0.8,3-2.1c0.1-0.2,0.1-0.5,0.1-0.7V406.5z"/>
	<path d="M1173.8,395.6c1.4-0.3,2.9-0.4,4.3-0.4c2.4,0,4,0.4,5.1,1.4c0.9,0.9,1.4,2.1,1.4,3.3c0,2.1-1.3,3.9-3.3,4.5v0.1
		c1.3,0.5,2.2,1.7,2.6,3.5c0.3,1.6,0.8,3.3,1.3,4.8h-2.3c-0.5-1.4-0.9-2.8-1.2-4.2c-0.5-2.4-1.4-3.3-3.5-3.4h-2.1v7.6h-2.3V395.6z
		 M1176.1,403.6h2.3c2.4,0,3.9-1.3,3.9-3.3c0-2.3-1.6-3.3-4-3.3c-0.8,0-1.5,0.1-2.2,0.2L1176.1,403.6z"/>
	<path d="M1190.6,396.8c0,0.8-0.6,1.4-1.4,1.4s-1.4-0.6-1.4-1.4s0.6-1.4,1.4-1.4c0,0,0,0,0.1,0c0.8,0,1.4,0.6,1.4,1.3
		C1190.6,396.7,1190.6,396.8,1190.6,396.8z M1188,412.9v-12.6h2.3v12.6H1188z"/>
	<path d="M1205,394.5v15.2c0,1.1,0,2.4,0.1,3.3h-2.1l-0.1-2.2h-0.1c-0.8,1.6-2.5,2.5-4.3,2.5c-3,0-5.4-2.6-5.4-6.4
		c0-4.2,2.6-6.8,5.7-6.8c1.5-0.1,3,0.6,3.8,1.9h0.1v-7.5H1205z M1202.7,405.5c0-0.3,0-0.7-0.1-1c-0.3-1.6-1.7-2.7-3.3-2.7
		c-2.4,0-3.8,2.1-3.8,4.9c0,2.5,1.3,4.7,3.7,4.7c1.6,0,3-1.1,3.3-2.7c0.1-0.3,0.1-0.7,0.1-1L1202.7,405.5z"/>
	<path d="M1210,407.1c0,3.1,2,4.4,4.3,4.4c1.2,0,2.4-0.2,3.5-0.7l0.4,1.6c-1.3,0.6-2.7,0.8-4.2,0.8c-3.9,0-6.2-2.5-6.2-6.3
		s2.2-6.8,5.9-6.8c4.1,0,5.2,3.6,5.2,5.9c0,0.4,0,0.7-0.1,1.1H1210z M1216.7,405.4c0-1.5-0.6-3.7-3.2-3.7c-2.3,0-3.3,2.1-3.5,3.7
		H1216.7z"/>
	<path d="M1678.6,395.4h2.3v11.7c0,4.7-2.3,6.1-5.3,6.1c-0.8,0-1.6-0.1-2.4-0.4l0.3-1.8c0.6,0.2,1.3,0.3,1.9,0.3
		c2,0,3.2-0.9,3.2-4.3V395.4z"/>
	<path d="M1695.9,406.5c0,4.6-3.2,6.7-6.3,6.7c-3.4,0-6-2.5-6-6.5c0-4.2,2.8-6.7,6.2-6.7S1695.9,402.7,1695.9,406.5z M1685.9,406.7
		c0,2.8,1.6,4.8,3.8,4.8s3.8-2,3.8-4.9c0-2.1-1.1-4.8-3.8-4.8S1685.9,404.3,1685.9,406.7L1685.9,406.7z"/>
	<path d="M1701.3,396.8c0,0.8-0.6,1.4-1.4,1.4s-1.4-0.6-1.4-1.4s0.6-1.4,1.4-1.4c0,0,0,0,0.1,0c0.8,0,1.4,0.6,1.4,1.3
		C1701.4,396.7,1701.4,396.8,1701.3,396.8z M1698.8,412.9v-12.6h2.3v12.6H1698.8z"/>
	<path d="M1704.9,403.8c0-1.3,0-2.4-0.1-3.4h2l0.1,2.1l0,0c0.8-1.5,2.4-2.4,4.2-2.4c1.7,0,4.4,1,4.4,5.4v7.5h-2.3v-7.3
		c0-2-0.8-3.7-2.9-3.7c-1.4,0-2.7,1-3.1,2.3c-0.1,0.3-0.2,0.7-0.2,1.1v7.6h-2.3L1704.9,403.8z"/>
	<path d="M1731.8,412.9l-0.2-1.6h-0.1c-0.9,1.2-2.3,1.9-3.8,1.9c-2,0.1-3.7-1.3-3.8-3.3c0-0.1,0-0.2,0-0.3c0-3,2.7-4.7,7.6-4.7v-0.3
		c0.2-1.4-0.8-2.7-2.2-2.9c-0.2,0-0.4,0-0.6,0c-1.2,0-2.3,0.3-3.3,0.9l-0.5-1.5c1.2-0.7,2.7-1.1,4.1-1.1c3.8,0,4.8,2.6,4.8,5.1v4.7
		c0,1,0.1,2,0.2,3L1731.8,412.9L1731.8,412.9z M1731.5,406.5c-2.5,0-5.3,0.4-5.3,2.8c-0.1,1.1,0.7,2.1,1.8,2.2c0.1,0,0.2,0,0.3,0
		c1.3,0,2.6-0.8,3-2.1c0.1-0.2,0.1-0.5,0.1-0.7L1731.5,406.5z"/>
	<path d="M1743,395.6c1.4-0.3,2.9-0.4,4.3-0.4c2.4,0,4,0.4,5.1,1.4c0.9,0.9,1.4,2.1,1.4,3.3c0,2.1-1.3,3.9-3.3,4.5v0.1
		c1.3,0.5,2.2,1.7,2.6,3.5c0.3,1.6,0.8,3.3,1.3,4.8h-2.4c-0.5-1.4-0.9-2.8-1.2-4.2c-0.5-2.4-1.5-3.3-3.5-3.4h-2.1v7.6h-2.2
		L1743,395.6L1743,395.6z M1745.3,403.6h2.3c2.4,0,4-1.3,4-3.3c0-2.3-1.6-3.3-4-3.3c-0.8,0-1.5,0.1-2.2,0.2L1745.3,403.6z"/>
	<path d="M1759.7,396.8c0,0.8-0.6,1.4-1.4,1.4s-1.4-0.6-1.4-1.4s0.6-1.4,1.4-1.4c0,0,0,0,0.1,0c0.8,0,1.4,0.6,1.4,1.3
		C1759.7,396.7,1759.7,396.8,1759.7,396.8z M1757.1,412.9v-12.6h2.3v12.6H1757.1z"/>
	<path d="M1774.1,394.5v15.2c0,1.1,0,2.4,0.1,3.3h-2.1l-0.1-2.2l0,0c-0.8,1.6-2.5,2.5-4.3,2.5c-3,0-5.4-2.6-5.4-6.4
		c0-4.2,2.6-6.8,5.6-6.8c1.5-0.1,3,0.6,3.8,1.9l0,0v-7.5H1774.1z M1771.8,405.5c0-0.3,0-0.7-0.1-1c-0.3-1.6-1.7-2.7-3.3-2.7
		c-2.4,0-3.8,2.1-3.8,4.9c0,2.5,1.3,4.7,3.7,4.7c1.6,0,3-1.1,3.4-2.7c0.1-0.3,0.1-0.7,0.1-1L1771.8,405.5z"/>
	<path d="M1779.1,407.1c0,3.1,2,4.4,4.3,4.4c1.2,0,2.4-0.2,3.5-0.7l0.4,1.6c-1.3,0.6-2.8,0.8-4.2,0.8c-3.9,0-6.2-2.5-6.2-6.3
		s2.2-6.8,5.9-6.8c4.1,0,5.2,3.6,5.2,5.9c0,0.4,0,0.7-0.1,1.1H1779.1z M1785.8,405.4c0-1.5-0.6-3.7-3.2-3.7c-2.3,0-3.3,2.1-3.5,3.7
		H1785.8z"/>
	<polyline class="st8" points="1457,267.9 1440,284.9 1423,267.9 	"/>
	<polyline class="st8" points="1457,517.9 1440,534.9 1423,517.9 	"/>
	<polyline class="st8" points="1586,421.4 1569,404.4 1586,387.4 	"/>
	<polyline class="st8" points="1294.5,388.4 1311.5,405.4 1294.5,422.4 	"/>
	<path class="st3" d="M1336.2,603.3c-1.8,0.7-3.7,1-5.6,0.9c-7.5,0-11.4-4.7-11.4-10.9c0-7.4,5.3-11.5,11.9-11.5
		c1.8-0.1,3.7,0.3,5.3,1l-1,3.9c-1.3-0.5-2.7-0.8-4.1-0.8c-3.9,0-6.9,2.4-6.9,7.2c0,4.3,2.6,7.1,6.9,7.1c1.4,0,2.8-0.2,4.1-0.7
		L1336.2,603.3z"/>
	<path class="st3" d="M1347.6,603.9l-0.3-1.6h-0.1c-1.1,1.3-2.8,2-4.5,1.9c-2.7,0.2-4.9-1.9-5.1-4.5c0-0.1,0-0.2,0-0.3
		c0-4.1,3.7-6.1,9.3-6v-0.2c0-0.8-0.4-2-2.9-2c-1.5,0-3,0.4-4.3,1.2l-0.9-3.1c1.9-1,4-1.5,6.1-1.4c5.3,0,6.9,3.1,6.9,6.8v5.5
		c0,1.3,0.1,2.5,0.3,3.8L1347.6,603.9z M1347,596.4c-2.6,0-4.6,0.6-4.6,2.5c-0.1,1,0.7,1.8,1.6,1.9c0.1,0,0.2,0,0.3,0
		c1.1,0,2.2-0.7,2.5-1.8c0.1-0.3,0.1-0.6,0.1-0.8L1347,596.4L1347,596.4z"/>
	<path class="st3" d="M1355.6,593.3c0-2.3,0-3.8-0.1-5.2h4.2l0.2,2.9h0.1c0.6-1.9,2.3-3.2,4.3-3.3c0.3,0,0.7,0,1,0.1v4.6
		c-0.4-0.1-0.9-0.1-1.3-0.1c-1.6-0.1-3,0.9-3.4,2.5c-0.1,0.4-0.1,0.7-0.1,1.1v8h-4.9L1355.6,593.3z"/>
	<path d="M1374.4,593.4c0-2.1-0.1-3.8-0.1-5.3h4.3l0.2,2.2h0.1c1.2-1.7,3.2-2.7,5.3-2.6c3.4,0,6.6,3,6.6,8c0,5.7-3.7,8.4-7.2,8.4
		c-1.6,0.1-3.1-0.6-4.1-1.8h-0.1v7.8h-4.9L1374.4,593.4z M1379.3,597.1c0,0.3,0,0.7,0.1,1c0.3,1.3,1.5,2.3,2.9,2.3
		c2.1,0,3.4-1.8,3.4-4.5c0-2.5-1.1-4.4-3.3-4.4c-1.4,0-2.7,1.1-2.9,2.5c-0.1,0.3-0.1,0.6-0.1,0.9L1379.3,597.1z"/>
	<path d="M1409.3,595.8c0,5.8-4.1,8.4-8.3,8.4c-4.6,0-8.1-3-8.1-8.1s3.3-8.3,8.4-8.3C1406.1,587.7,1409.3,591.1,1409.3,595.8z
		 M1397.9,596c0,2.7,1.1,4.7,3.2,4.7c1.9,0,3.1-1.9,3.1-4.8c0-2.3-0.9-4.7-3.1-4.7S1397.9,593.6,1397.9,596z"/>
	<path d="M1428.1,595.8c0,5.8-4.1,8.4-8.3,8.4c-4.6,0-8.1-3-8.1-8.1s3.4-8.3,8.4-8.3c4.2-0.2,7.8,3,8,7.2
		C1428.1,595.3,1428.1,595.5,1428.1,595.8z M1416.7,596c0,2.7,1.1,4.7,3.2,4.7c1.9,0,3.1-1.9,3.1-4.8c0-2.3-0.9-4.7-3.1-4.7
		S1416.7,593.6,1416.7,596L1416.7,596z"/>
	<path d="M1431.1,581h4.9v22.9h-4.9V581z"/>
	<path d="M1460.8,603.6l-0.2-1.6h-0.1c-0.9,1.2-2.3,1.9-3.8,1.9c-2,0.1-3.7-1.3-3.8-3.3c0-0.1,0-0.2,0-0.3c0-3,2.7-4.7,7.6-4.7v-0.3
		c0.2-1.4-0.8-2.7-2.2-2.9c-0.2,0-0.4,0-0.6,0c-1.2,0-2.3,0.3-3.3,0.9l-0.5-1.5c1.2-0.7,2.7-1.1,4.1-1.1c3.8,0,4.8,2.6,4.8,5.2v4.7
		c0,1,0.1,2,0.2,3L1460.8,603.6z M1460.5,597.2c-2.5,0-5.3,0.4-5.3,2.8c-0.1,1.1,0.7,2.1,1.8,2.2c0.1,0,0.2,0,0.4,0
		c1.3,0,2.6-0.8,3-2.1c0.1-0.2,0.1-0.5,0.1-0.7V597.2z"/>
	<path d="M1466.4,594.4c0-1.3,0-2.4-0.1-3.4h2l0.1,2.1l0,0c0.8-1.5,2.4-2.4,4.2-2.4c1.7,0,4.4,1,4.4,5.4v7.5h-2.3v-7.3
		c0-2-0.8-3.7-2.9-3.7c-1.4,0-2.7,1-3.1,2.3c-0.1,0.3-0.2,0.7-0.2,1.1v7.6h-2.3L1466.4,594.4z"/>
	<path d="M1491.7,585.2v15.2c0,1.1,0,2.4,0.1,3.3h-2l-0.1-2.2h-0.1c-0.8,1.6-2.5,2.5-4.3,2.5c-3,0-5.4-2.6-5.4-6.4
		c0-4.2,2.6-6.8,5.6-6.8c1.5-0.1,3,0.6,3.8,1.9h0.1v-7.5H1491.7z M1489.4,596.2c0-0.3,0-0.7-0.1-1c-0.3-1.6-1.7-2.7-3.3-2.7
		c-2.4,0-3.8,2.1-3.8,4.9c0,2.5,1.3,4.7,3.7,4.7c1.6,0,3-1.1,3.3-2.7c0.1-0.3,0.1-0.7,0.1-1L1489.4,596.2z"/>
	<path d="M1502.3,597.7c0,3.1,2,4.4,4.3,4.4c1.2,0,2.4-0.2,3.5-0.7l0.4,1.6c-1.3,0.6-2.8,0.8-4.2,0.8c-3.9,0-6.2-2.5-6.2-6.3
		s2.2-6.8,5.9-6.8c4.1,0,5.2,3.6,5.2,5.9c0,0.4,0,0.7-0.1,1.1H1502.3z M1509,596.1c0-1.5-0.6-3.7-3.2-3.7c-2.3,0-3.3,2.1-3.5,3.7
		H1509z"/>
	<path d="M1514,594.4c0-1.3,0-2.4-0.1-3.4h2l0.1,2.1h0.1c0.8-1.5,2.4-2.4,4.2-2.4c1.7,0,4.4,1,4.4,5.4v7.5h-2.3v-7.3
		c0-2-0.8-3.7-2.9-3.7c-1.4,0-2.7,1-3.1,2.3c-0.1,0.3-0.2,0.7-0.2,1.1v7.6h-2.3v-9.2H1514z"/>
	<path d="M1525.4,607.3c0.9,0,1.8-0.4,2.5-1c0.6-0.7,0.9-1.7,0.9-4.7V591h2.3v11.4c0,2.5-0.4,4-1.5,5.2c-1.1,0.9-2.5,1.4-3.9,1.4
		L1525.4,607.3z M1531.3,587.5c0,0.7-0.5,1.4-1.3,1.4c-0.1,0-0.1,0-0.2,0c-0.8,0-1.4-0.6-1.4-1.3c0,0,0,0,0-0.1
		c0-0.8,0.6-1.4,1.4-1.4c0,0,0,0,0.1,0C1530.6,586.1,1531.3,586.7,1531.3,587.5L1531.3,587.5z"/>
	<path d="M1546.2,597.2c0,4.7-3.2,6.7-6.3,6.7c-3.4,0-6-2.5-6-6.5c0-4.2,2.8-6.7,6.2-6.7S1546.2,593.4,1546.2,597.2z M1536.2,597.4
		c0,2.8,1.6,4.8,3.8,4.8s3.8-2,3.8-4.9c0-2.1-1.1-4.8-3.8-4.8S1536.2,594.9,1536.2,597.4L1536.2,597.4z"/>
	<path d="M1549.7,591l2.8,7.4c0.3,0.8,0.6,1.8,0.8,2.6h0.1c0.2-0.8,0.5-1.7,0.8-2.6l2.5-7.4h2.4l-3.4,9c-1.6,4.3-2.8,6.5-4.3,7.9
		c-0.8,0.7-1.8,1.2-2.8,1.5l-0.6-1.9c0.7-0.2,1.4-0.6,2-1.1c0.8-0.7,1.5-1.6,1.9-2.5c0.1-0.2,0.2-0.4,0.2-0.5c0-0.2-0.1-0.4-0.2-0.6
		l-4.7-11.6L1549.7,591z"/>
</g>
</svg>
