<?xml version="1.0" encoding="utf-8"?>
<!-- Generator: Adobe Illustrator 23.0.1, SVG Export Plug-In . SVG Version: 6.00 Build 0)  -->
<svg version="1.1" id="Layer_1" xmlns="http://www.w3.org/2000/svg" xmlns:xlink="http://www.w3.org/1999/xlink" x="0px" y="0px"
	 viewBox="0 0 562.3 181" style="enable-background:new 0 0 562.3 181;" xml:space="preserve">
<style type="text/css">
	.st0{fill:#3BC04A;}
</style>
<title>carPoolLogo</title>
<path class="st0" d="M81.6,127.3c-4.2,2.1-14.1,4.5-26.7,4.5C18.7,131.8,0,109.2,0,79.4c0-35.6,25.5-55.4,57.1-55.4
	c12.3,0,21.6,2.4,25.7,4.6L78,47.4c-6.3-2.7-13-4-19.9-3.9c-18.6,0-33.3,11.4-33.3,34.6c0,21,12.4,34.1,33.4,34.1
	c7.2,0,15.1-1.4,19.7-3.4L81.6,127.3z"/>
<path class="st0" d="M136.5,130.2l-1.4-7.5h-0.5c-4.9,6-12.7,9.2-21.7,9.2c-15.4,0-24.5-11.1-24.5-23.2c0-19.8,17.7-29.1,44.5-29.1
	v-1c0-4-2.2-9.8-13.9-9.8c-7.3,0.1-14.5,2-20.9,5.7l-4.3-15.1c5.3-3,15.6-6.8,29.5-6.8c25.3,0,33.3,14.9,33.3,32.8v26.5
	c0,7.2,0.4,14.1,1.2,18.4L136.5,130.2z M133.6,94.3c-12.4-0.1-22,2.9-22,12c0,6.1,4,9.1,9.4,9.1c5.5,0,10.4-3.5,12.2-8.7
	c0.3-1.3,0.5-2.7,0.4-4L133.6,94.3z"/>
<path class="st0" d="M175.2,79.3c0-11.1-0.2-18.5-0.6-25h20.3l0.9,14h0.6c3.9-11.1,13.1-15.8,20.5-15.8c1.7-0.1,3.4,0.1,5,0.5v22.2
	c-2.1-0.5-4.2-0.7-6.4-0.7c-8.7,0-14.6,4.6-16.2,12c-0.3,1.7-0.4,3.5-0.4,5.3v38.4h-23.6V79.3z"/>
<path d="M265.5,79.8c0-10-0.3-18.4-0.6-25.5h20.5l1.1,10.6h0.3c5.6-8,14.3-12.3,25.3-12.3c16.6,0,31.5,14.4,31.5,38.7
	c0,27.7-17.6,40.6-34.5,40.6c-9.1,0-16.3-3.6-19.7-8.7h-0.3v37.7h-23.6L265.5,79.8z M289.1,97.7c0,1.7,0.1,3.3,0.5,4.9
	c1.4,6.5,7.2,11.1,13.8,11.2c10.2,0,16.3-8.6,16.3-21.5c0-12.1-5.4-21.3-15.9-21.3c-6.9,0.2-12.8,5.1-14.1,11.9
	c-0.4,1.4-0.5,2.8-0.5,4.2V97.7z"/>
<path d="M433.8,91.5c0,27.7-19.6,40.4-40,40.4c-22.1,0-39.2-14.6-39.2-39.1s16.1-40.2,40.5-40.2C418.4,52.6,433.8,68.6,433.8,91.5z
	 M379,92.3c0,13,5.5,22.8,15.5,22.8c9.2,0,15-9.2,15-22.9c0-11.2-4.3-22.7-15-22.7C383.3,69.4,378.9,81,379,92.3L379,92.3z"/>
<path d="M524.1,91.5c0,27.7-19.6,40.4-40,40.4c-22.1,0-39.2-14.6-39.2-39.1s16.1-40.2,40.5-40.2C508.6,52.6,524.1,68.6,524.1,91.5z
	 M469.2,92.3c0,13,5.5,22.8,15.5,22.8c9.2,0,15-9.2,15-22.9c0-11.2-4.3-22.7-15-22.7C473.5,69.4,469.2,81,469.2,92.3z"/>
<path d="M538.7,20.1h23.6v110.1h-23.6V20.1z"/>
</svg>
